<svg data-v-423bf9ae="" xmlns="http://www.w3.org/2000/svg" viewBox="0 0 445 90" class="iconLeft"><!----><!----><!----><g data-v-423bf9ae="" id="4acac012-f537-4cce-8bc6-6ef3bc19bb48" fill="#000000" transform="matrix(4.576659202575684,0,0,4.576659202575684,118.04491424560547,2.7803170680999756)"><path d="M7.17 10.36L7.97 10.36L7.87 12.85L0.62 12.85L0.62 12.28L1.90 12.12L1.90 12.12Q1.93 11.24 1.93 10.34L1.93 10.34L1.93 10.34Q1.93 9.44 1.93 8.51L1.93 8.51L1.93 7.83L1.93 7.83Q1.93 6.92 1.93 6.02L1.93 6.02L1.93 6.02Q1.93 5.12 1.90 4.21L1.90 4.21L0.62 4.06L0.62 3.49L7.59 3.49L7.69 5.98L6.89 5.98L6.58 4.20L3.28 4.20L3.28 4.20Q3.25 5.08 3.25 5.96L3.25 5.96L3.25 5.96Q3.25 6.85 3.25 7.74L3.25 7.74L5.33 7.74L5.53 6.40L6.16 6.40L6.16 9.72L5.53 9.72L5.35 8.40L3.25 8.40L3.25 8.40Q3.25 9.41 3.25 10.32L3.25 10.32L3.25 10.32Q3.25 11.24 3.28 12.15L3.28 12.15L6.86 12.15L7.17 10.36ZM11.73 12.19L12.98 12.19L12.98 12.19Q13.71 12.19 14.30 11.94L14.30 11.94L14.30 11.94Q14.90 11.68 15.32 11.17L15.32 11.17L15.32 11.17Q15.74 10.65 15.97 9.91L15.97 9.91L15.97 9.91Q16.20 9.16 16.20 8.18L16.20 8.18L16.20 8.18Q16.20 7.20 15.97 6.44L15.97 6.44L15.97 6.44Q15.74 5.68 15.31 5.17L15.31 5.17L15.31 5.17Q14.88 4.66 14.29 4.40L14.29 4.40L14.29 4.40Q13.69 4.14 12.96 4.14L12.96 4.14L11.73 4.14L11.73 4.14Q11.70 5.05 11.70 5.97L11.70 5.97L11.70 5.97Q11.70 6.89 11.70 7.83L11.70 7.83L11.70 8.34L11.70 8.34Q11.70 9.38 11.70 10.32L11.70 10.32L11.70 10.32Q11.70 11.27 11.73 12.19L11.73 12.19ZM9.07 3.49L13.22 3.49L13.22 3.49Q14.18 3.49 15.01 3.79L15.01 3.79L15.01 3.79Q15.83 4.10 16.44 4.69L16.44 4.69L16.44 4.69Q17.04 5.28 17.38 6.15L17.38 6.15L17.38 6.15Q17.72 7.03 17.72 8.16L17.72 8.16L17.72 8.16Q17.72 9.30 17.35 10.17L17.35 10.17L17.35 10.17Q16.97 11.05 16.32 11.64L16.32 11.64L16.32 11.64Q15.67 12.24 14.79 12.54L14.79 12.54L14.79 12.54Q13.92 12.85 12.94 12.85L12.94 12.85L9.07 12.85L9.07 12.28L10.36 12.12L10.36 12.12Q10.39 11.23 10.39 10.30L10.39 10.30L10.39 10.30Q10.39 9.37 10.39 8.34L10.39 8.34L10.39 7.83L10.39 7.83Q10.39 6.92 10.39 6.02L10.39 6.02L10.39 6.02Q10.39 5.12 10.36 4.21L10.36 4.21L9.07 4.06L9.07 3.49ZM27.83 3.49L27.83 4.06L26.61 4.23L26.61 9.02L26.61 9.02Q26.61 10.12 26.36 10.89L26.36 10.89L26.36 10.89Q26.11 11.66 25.65 12.14L25.65 12.14L25.65 12.14Q25.20 12.63 24.59 12.85L24.59 12.85L24.59 12.85Q23.98 13.06 23.27 13.06L23.27 13.06L23.27 13.06Q22.50 13.06 21.87 12.85L21.87 12.85L21.87 12.85Q21.24 12.63 20.78 12.17L20.78 12.17L20.78 12.17Q20.33 11.72 20.08 11.01L20.08 11.01L20.08 11.01Q19.84 10.30 19.84 9.32L19.84 9.32L19.84 7.83L19.84 7.83Q19.84 6.92 19.84 6.01L19.84 6.01L19.84 6.01Q19.84 5.11 19.81 4.20L19.81 4.20L18.65 4.06L18.65 3.49L22.61 3.49L22.61 4.06L21.20 4.23L21.20 4.23Q21.17 5.11 21.17 6.01L21.17 6.01L21.17 6.01Q21.17 6.90 21.17 7.83L21.17 7.83L21.17 8.92L21.17 8.92Q21.17 9.81 21.33 10.42L21.33 10.42L21.33 10.42Q21.49 11.02 21.79 11.39L21.79 11.39L21.79 11.39Q22.09 11.76 22.53 11.91L22.53 11.91L22.53 11.91Q22.96 12.07 23.49 12.07L23.49 12.07L23.49 12.07Q24.09 12.07 24.54 11.89L24.54 11.89L24.54 11.89Q24.99 11.70 25.29 11.30L25.29 11.30L25.29 11.30Q25.59 10.91 25.75 10.26L25.75 10.26L25.75 10.26Q25.90 9.62 25.90 8.68L25.90 8.68L25.90 4.26L24.47 4.06L24.47 3.49L27.83 3.49ZM35.21 10.36L36.01 10.36L35.91 12.85L28.66 12.85L28.66 12.28L29.95 12.12L29.95 12.12Q29.97 11.24 29.97 10.34L29.97 10.34L29.97 10.34Q29.97 9.44 29.97 8.51L29.97 8.51L29.97 7.83L29.97 7.83Q29.97 6.92 29.97 6.02L29.97 6.02L29.97 6.02Q29.97 5.12 29.95 4.21L29.95 4.21L28.66 4.06L28.66 3.49L35.63 3.49L35.73 5.98L34.93 5.98L34.62 4.20L31.32 4.20L31.32 4.20Q31.29 5.08 31.29 5.96L31.29 5.96L31.29 5.96Q31.29 6.85 31.29 7.74L31.29 7.74L33.38 7.74L33.57 6.40L34.20 6.40L34.20 9.72L33.57 9.72L33.39 8.40L31.29 8.40L31.29 8.40Q31.29 9.41 31.29 10.32L31.29 10.32L31.29 10.32Q31.29 11.24 31.32 12.15L31.32 12.15L34.90 12.15L35.21 10.36ZM43.60 12.15L44.58 12.35L44.58 12.85L41.33 12.85L41.33 12.35L42.36 12.15L42.36 12.15Q42.38 11.63 42.38 11.02L42.38 11.02L42.38 11.02Q42.39 10.40 42.39 9.91L42.39 9.91L42.39 8.68L42.39 8.68Q42.39 7.73 42.13 7.35L42.13 7.35L42.13 7.35Q41.86 6.97 41.24 6.97L41.24 6.97L41.24 6.97Q40.75 6.97 40.30 7.18L40.30 7.18L40.30 7.18Q39.84 7.39 39.31 7.85L39.31 7.85L39.31 9.91L39.31 9.91Q39.31 10.37 39.32 11.00L39.32 11.00L39.32 11.00Q39.33 11.62 39.34 12.15L39.34 12.15L40.32 12.35L40.32 12.85L37.07 12.85L37.07 12.35L38.11 12.15L38.11 12.15Q38.12 11.62 38.13 11.00L38.13 11.00L38.13 11.00Q38.14 10.39 38.14 9.91L38.14 9.91L38.14 9.20L38.14 9.20Q38.14 8.62 38.12 8.25L38.12 8.25L38.12 8.25Q38.11 7.87 38.09 7.45L38.09 7.45L36.99 7.32L36.99 6.83L38.93 5.98L39.14 6.12L39.26 7.25L39.26 7.25Q39.77 6.68 40.44 6.33L40.44 6.33L40.44 6.33Q41.10 5.98 41.78 5.98L41.78 5.98L41.78 5.98Q42.69 5.98 43.13 6.58L43.13 6.58L43.13 6.58Q43.57 7.18 43.57 8.57L43.57 8.57L43.57 9.91L43.57 9.91Q43.57 10.40 43.57 11.01L43.57 11.01L43.57 11.01Q43.58 11.62 43.60 12.15L43.60 12.15ZM48.31 10.01L48.31 10.01L48.31 10.01Q48.99 10.01 49.36 9.52L49.36 9.52L49.36 9.52Q49.74 9.03 49.74 8.25L49.74 8.25L49.74 8.25Q49.74 7.49 49.39 7.02L49.39 7.02L49.39 7.02Q49.04 6.55 48.38 6.55L48.38 6.55L48.38 6.55Q47.71 6.55 47.34 7.04L47.34 7.04L47.34 7.04Q46.97 7.52 46.97 8.29L46.97 8.29L46.97 8.29Q46.97 9.06 47.32 9.53L47.32 9.53L47.32 9.53Q47.67 10.01 48.31 10.01ZM49.42 12.87L47.87 12.87L47.87 12.87Q47.50 12.87 47.15 12.80L47.15 12.80L47.15 12.80Q46.91 13.08 46.77 13.34L46.77 13.34L46.77 13.34Q46.63 13.61 46.63 13.94L46.63 13.94L46.63 13.94Q46.63 14.57 47.14 14.86L47.14 14.86L47.14 14.86Q47.64 15.15 48.45 15.15L48.45 15.15L48.45 15.15Q49.62 15.15 50.21 14.74L50.21 14.74L50.21 14.74Q50.81 14.34 50.81 13.76L50.81 13.76L50.81 13.76Q50.81 13.59 50.74 13.43L50.74 13.43L50.74 13.43Q50.68 13.27 50.52 13.15L50.52 13.15L50.52 13.15Q50.36 13.02 50.09 12.94L50.09 12.94L50.09 12.94Q49.83 12.87 49.42 12.87L49.42 12.87ZM51.94 6.16L51.94 7.04L50.58 7.04L50.58 7.04Q50.89 7.57 50.89 8.27L50.89 8.27L50.89 8.27Q50.89 8.82 50.69 9.25L50.69 9.25L50.69 9.25Q50.50 9.67 50.16 9.97L50.16 9.97L50.16 9.97Q49.83 10.26 49.36 10.42L49.36 10.42L49.36 10.42Q48.90 10.57 48.36 10.57L48.36 10.57L48.36 10.57Q48.08 10.57 47.82 10.54L47.82 10.54L47.82 10.54Q47.57 10.50 47.33 10.43L47.33 10.43L47.33 10.43Q47.22 10.58 47.14 10.76L47.14 10.76L47.14 10.76Q47.07 10.93 47.07 11.13L47.07 11.13L47.07 11.13Q47.07 11.45 47.31 11.63L47.31 11.63L47.31 11.63Q47.54 11.82 48.16 11.82L48.16 11.82L49.62 11.82L49.62 11.82Q50.76 11.82 51.32 12.22L51.32 12.22L51.32 12.22Q51.87 12.63 51.87 13.37L51.87 13.37L51.87 13.37Q51.87 13.83 51.65 14.27L51.65 14.27L51.65 14.27Q51.44 14.70 50.99 15.04L50.99 15.04L50.99 15.04Q50.55 15.37 49.90 15.57L49.90 15.57L49.90 15.57Q49.25 15.78 48.37 15.78L48.37 15.78L48.37 15.78Q47.63 15.78 47.08 15.65L47.08 15.65L47.08 15.65Q46.54 15.53 46.18 15.31L46.18 15.31L46.18 15.31Q45.82 15.09 45.65 14.80L45.65 14.80L45.65 14.80Q45.47 14.50 45.47 14.18L45.47 14.18L45.47 14.18Q45.47 13.31 46.77 12.66L46.77 12.66L46.77 12.66Q46.37 12.47 46.19 12.19L46.19 12.19L46.19 12.19Q46.02 11.90 46.02 11.58L46.02 11.58L46.02 11.58Q46.02 11.20 46.25 10.88L46.25 10.88L46.25 10.88Q46.48 10.56 46.91 10.25L46.91 10.25L46.91 10.25Q46.42 9.97 46.13 9.48L46.13 9.48L46.13 9.48Q45.84 8.99 45.84 8.27L45.84 8.27L45.84 8.27Q45.84 7.73 46.03 7.30L46.03 7.30L46.03 7.30Q46.23 6.87 46.56 6.58L46.56 6.58L46.56 6.58Q46.90 6.29 47.36 6.13L47.36 6.13L47.36 6.13Q47.82 5.98 48.37 5.98L48.37 5.98L48.37 5.98Q49.48 5.98 50.16 6.55L50.16 6.55L51.73 6.02L51.94 6.16ZM54.39 4.48L54.39 4.48L54.39 4.48Q53.98 4.48 53.72 4.23L53.72 4.23L53.72 4.23Q53.45 3.98 53.45 3.57L53.45 3.57L53.45 3.57Q53.45 3.16 53.72 2.92L53.72 2.92L53.72 2.92Q53.98 2.67 54.39 2.67L54.39 2.67L54.39 2.67Q54.80 2.67 55.06 2.92L55.06 2.92L55.06 2.92Q55.33 3.16 55.33 3.57L55.33 3.57L55.33 3.57Q55.33 3.98 55.06 4.23L55.06 4.23L55.06 4.23Q54.80 4.48 54.39 4.48ZM55.02 12.15L55.99 12.35L55.99 12.85L52.74 12.85L52.74 12.35L53.79 12.15L53.79 12.15Q53.80 11.62 53.81 11.00L53.81 11.00L53.81 11.00Q53.82 10.37 53.82 9.91L53.82 9.91L53.82 9.21L53.82 9.21Q53.82 8.64 53.80 8.25L53.80 8.25L53.80 8.25Q53.79 7.87 53.77 7.45L53.77 7.45L52.67 7.32L52.67 6.83L54.82 5.98L55.03 6.12L54.99 8.02L54.99 9.91L54.99 9.91Q54.99 10.37 55.00 11.00L55.00 11.00L55.00 11.00Q55.01 11.62 55.02 12.15L55.02 12.15ZM63.52 12.15L64.50 12.35L64.50 12.85L61.25 12.85L61.25 12.35L62.29 12.15L62.29 12.15Q62.30 11.63 62.31 11.02L62.31 11.02L62.31 11.02Q62.31 10.40 62.31 9.91L62.31 9.91L62.31 8.68L62.31 8.68Q62.31 7.73 62.05 7.35L62.05 7.35L62.05 7.35Q61.78 6.97 61.17 6.97L61.17 6.97L61.17 6.97Q60.68 6.97 60.22 7.18L60.22 7.18L60.22 7.18Q59.77 7.39 59.23 7.85L59.23 7.85L59.23 9.91L59.23 9.91Q59.23 10.37 59.24 11.00L59.24 11.00L59.24 11.00Q59.25 11.62 59.26 12.15L59.26 12.15L60.24 12.35L60.24 12.85L56.99 12.85L56.99 12.35L58.03 12.15L58.03 12.15Q58.04 11.62 58.05 11.00L58.05 11.00L58.05 11.00Q58.06 10.39 58.06 9.91L58.06 9.91L58.06 9.20L58.06 9.20Q58.06 8.62 58.04 8.25L58.04 8.25L58.04 8.25Q58.03 7.87 58.02 7.45L58.02 7.45L56.91 7.32L56.91 6.83L58.86 5.98L59.07 6.12L59.18 7.25L59.18 7.25Q59.70 6.68 60.36 6.33L60.36 6.33L60.36 6.33Q61.03 5.98 61.70 5.98L61.70 5.98L61.70 5.98Q62.61 5.98 63.05 6.58L63.05 6.58L63.05 6.58Q63.49 7.18 63.49 8.57L63.49 8.57L63.49 9.91L63.49 9.91Q63.49 10.40 63.50 11.01L63.50 11.01L63.50 11.01Q63.50 11.62 63.52 12.15L63.52 12.15ZM66.86 8.86L69.41 8.86L69.41 8.86Q69.92 8.86 70.08 8.65L70.08 8.65L70.08 8.65Q70.25 8.44 70.25 8.13L70.25 8.13L70.25 8.13Q70.25 7.84 70.13 7.57L70.13 7.57L70.13 7.57Q70.01 7.29 69.81 7.08L69.81 7.08L69.81 7.08Q69.61 6.87 69.33 6.75L69.33 6.75L69.33 6.75Q69.06 6.62 68.74 6.62L68.74 6.62L68.74 6.62Q68.45 6.62 68.13 6.74L68.13 6.74L68.13 6.74Q67.82 6.86 67.56 7.13L67.56 7.13L67.56 7.13Q67.30 7.41 67.11 7.83L67.11 7.83L67.11 7.83Q66.92 8.26 66.86 8.86L66.86 8.86ZM71.32 9.46L66.84 9.46L66.84 9.46Q66.86 10.77 67.48 11.47L67.48 11.47L67.48 11.47Q68.10 12.17 69.10 12.17L69.10 12.17L69.10 12.17Q69.78 12.17 70.22 11.89L70.22 11.89L70.22 11.89Q70.67 11.61 71.05 11.16L71.05 11.16L71.39 11.42L71.39 11.42Q71.02 12.18 70.34 12.62L70.34 12.62L70.34 12.62Q69.66 13.06 68.70 13.06L68.70 13.06L68.70 13.06Q67.98 13.06 67.41 12.82L67.41 12.82L67.41 12.82Q66.84 12.59 66.43 12.13L66.43 12.13L66.43 12.13Q66.02 11.68 65.80 11.03L65.80 11.03L65.80 11.03Q65.58 10.39 65.58 9.59L65.58 9.59L65.58 9.59Q65.58 8.79 65.83 8.13L65.83 8.13L65.83 8.13Q66.08 7.46 66.52 6.99L66.52 6.99L66.52 6.99Q66.96 6.51 67.55 6.24L67.55 6.24L67.55 6.24Q68.14 5.98 68.80 5.98L68.80 5.98L68.80 5.98Q69.34 5.98 69.82 6.16L69.82 6.16L69.82 6.16Q70.31 6.34 70.66 6.69L70.66 6.69L70.66 6.69Q71.01 7.04 71.21 7.55L71.21 7.55L71.21 7.55Q71.41 8.05 71.41 8.68L71.41 8.68L71.41 8.68Q71.41 8.92 71.39 9.11L71.39 9.11L71.39 9.11Q71.36 9.31 71.32 9.46L71.32 9.46Z"></path></g><defs data-v-423bf9ae=""><linearGradient data-v-423bf9ae="" gradientTransform="rotate(25)" id="d5157001-f507-4c5d-92ff-b5168933e13f" x1="0%" y1="0%" x2="100%" y2="0%"><stop data-v-423bf9ae="" offset="0%" style="stop-color: rgb(65, 15, 248); stop-opacity: 1; --darkreader-inline-stopcolor: #5325f9;" data-darkreader-inline-stopcolor=""></stop><stop data-v-423bf9ae="" offset="100%" style="stop-color: rgb(65, 15, 248); stop-opacity: 1; --darkreader-inline-stopcolor: #5325f9;" data-darkreader-inline-stopcolor=""></stop></linearGradient></defs><g data-v-423bf9ae="" id="b82a4214-f348-4d8c-a622-83299f336a8a" transform="matrix(1.198242425918579,0,0,1.198242425918579,-9.103873252868652,-15.578142166137695)" stroke="none" fill="url(#d5157001-f507-4c5d-92ff-b5168933e13f)" style="--darkreader-inline-stroke: none;" data-darkreader-inline-stroke=""><path d="M49.569 22.967c-9.975-5.691-20.677-9.125-31.045-9.962v58.351c10.367.814 21.05 4.154 31.045 9.699V22.967zM82.444 13.005c-10.368.838-21.071 4.271-31.045 9.962v58.087c9.993-5.545 20.679-8.885 31.045-9.699v-58.35z"></path><path d="M49.229 84.073c.814.278 1.671.29 2.485.012 11.657-5.043 23.865-7.313 35.798-6.79V19.524a67.09 67.09 0 0 0-3.24-.055v53.594l-.852.056c-10.672.697-21.732 4.177-32.021 10.048a2.826 2.826 0 0 1-1.83 0c-10.29-5.871-21.349-9.351-32.021-10.048l-.854-.056V19.469a65.788 65.788 0 0 0-3.239.055v57.771c11.932-.524 24.114 1.735 35.774 6.778z"></path><path d="M92.579 26.009c-1.07-.149-2.157-.228-3.237-.335v53.55l-.968-.056c-12.195-.699-25.06 1.777-36.975 7.065l-.916.381-.915-.381c-11.917-5.288-24.781-7.765-36.976-7.065l-.967.056v-53.55c-1.081.108-2.168.187-3.238.335v58.707a4.876 4.876 0 0 1 1.044.748c12.951-1.75 26.393-1.536 39.18 2.651a19.022 19.022 0 0 1 1.873-.095c.661 0 1.285.037 1.872.095 12.785-4.188 26.229-4.401 39.179-2.651 0 0 .474-.462 1.044-.748V26.009z"></path></g><!----></svg>